<svg xmlns="http://www.w3.org/2000/svg" viewBox="0 0 64 64" role="img" aria-label="择木而栖">
  <rect width="64" height="64" rx="13" fill="#3b2426"/>
  <path d="M13 45.5c11.8-3.1 23.6-3.2 36.8-.5" fill="none" stroke="#d9868a" stroke-linecap="round" stroke-width="3.2"/>
  <path d="M22.2 39.6c-2.9-8.8 3.9-17.7 13.4-16.3 2.6-5.1 7.7-7.1 12.4-4.6-.8 5-4.3 9-9.1 10.5-1.3 7.5-7.5 12.2-16.7 10.4Z" fill="#fff9f7"/>
  <path d="m46.3 22.5 7 1.7-6.8 2.5" fill="#d9868a"/>
  <circle cx="41.2" cy="22.7" r="1.35" fill="#3b2426"/>
  <path d="M25.4 33.2c4.4-2.2 8.6-1.6 12.2 1.8-4.7 2.7-8.8 2.1-12.2-1.8Z" fill="#d9868a"/>
</svg>
